<svg width="1145" height="170" viewBox="0 0 1145 170" fill="none" xmlns="http://www.w3.org/2000/svg">
<path d="M39.584 157.554L39.0764 158.415L39.079 158.417L39.584 157.554ZM11.752 41.8311L12.6359 42.2987L12.6371 42.2963L11.752 41.8311ZM39.584 12.29L39.079 11.4269L39.0765 11.4284L39.584 12.29ZM139.438 25.2295L138.707 25.9124L138.711 25.9166L139.438 25.2295ZM153.964 51.2305V52.2305H155.263L154.931 50.9748L153.964 51.2305ZM137.484 51.2305L136.542 51.5645L136.778 52.2305H137.484V51.2305ZM47.5186 24.375L47.003 23.5181L46.9998 23.5201L47.5186 24.375ZM25.0576 48.667L24.1716 48.2032L24.1688 48.2087L25.0576 48.667ZM25.0576 121.299L24.1674 121.754L24.1702 121.76L25.0576 121.299ZM47.6406 145.591L47.1304 146.451L47.1358 146.454L47.6406 145.591ZM116.244 144.37L115.716 143.521L116.244 144.37ZM137.484 118.491V117.491H136.777L136.542 118.158L137.484 118.491ZM153.964 118.491L154.932 118.743L155.258 117.491H153.964V118.491ZM139.804 144.248L139.069 143.569L139.065 143.574L139.804 144.248ZM114.169 161.826L114.544 162.753L114.55 162.751L114.169 161.826ZM80.7217 167.052C65.4159 167.052 51.8815 163.59 40.089 156.691L39.079 158.417C51.2123 165.515 65.103 169.052 80.7217 169.052V167.052ZM40.0915 156.692C28.3753 149.791 19.2257 140.123 12.6359 127.667L10.868 128.602C17.6246 141.374 27.0297 151.319 39.0765 158.415L40.0915 156.692ZM12.6359 127.667C6.04831 115.215 2.74219 101.016 2.74219 85.0439H0.742188C0.742188 101.299 4.10925 115.827 10.868 128.602L12.6359 127.667ZM2.74219 85.0439C2.74219 68.9901 6.04868 54.7501 12.6359 42.2987L10.868 41.3634C4.10887 54.1399 0.742188 68.7085 0.742188 85.0439H2.74219ZM12.6371 42.2963C19.2274 29.7588 28.3769 20.052 40.0915 13.1517L39.0765 11.4284C27.028 18.5254 17.6229 28.5127 10.8668 41.3658L12.6371 42.2963ZM40.089 13.1532C51.8815 6.25415 65.4159 2.79199 80.7217 2.79199V0.791992C65.103 0.791992 51.2123 4.32853 39.079 11.4269L40.089 13.1532ZM80.7217 2.79199C92.4045 2.79199 103.264 4.80576 113.309 8.82398L114.052 6.96703C103.753 2.84724 92.6392 0.791992 80.7217 0.791992V2.79199ZM113.309 8.82398C123.355 12.8423 131.815 18.5399 138.707 25.9124L140.168 24.5466C133.062 16.9451 124.351 11.0867 114.052 6.96703L113.309 8.82398ZM138.711 25.9166C145.678 33.2836 150.436 41.8027 152.997 51.4861L154.931 50.9748C152.283 40.9642 147.358 32.1494 140.164 24.5424L138.711 25.9166ZM153.964 50.2305H137.484V52.2305H153.964V50.2305ZM138.427 50.8965C134.683 40.3302 127.571 31.6581 117.156 24.8796L116.065 26.5559C126.157 33.1239 132.962 41.4602 136.542 51.5645L138.427 50.8965ZM117.156 24.8796C106.719 18.0874 94.4797 14.708 80.4775 14.708V16.708C94.1446 16.708 105.994 20.0018 116.065 26.5559L117.156 24.8796ZM80.4775 14.708C67.9455 14.708 56.7774 17.637 47.003 23.5181L48.0341 25.2319C57.4655 19.557 68.27 16.708 80.4775 16.708V14.708ZM46.9998 23.5201C37.3137 29.3979 29.7037 37.6346 24.1716 48.2032L25.9436 49.1307C31.3165 38.8661 38.6804 30.9081 48.0373 25.2299L46.9998 23.5201ZM24.1688 48.2087C18.7125 58.7906 16.001 71.0786 16.001 85.0439H18.001C18.001 71.3401 20.6605 59.3768 25.9464 49.1253L24.1688 48.2087ZM16.001 85.0439C16.001 98.8489 18.7134 111.094 24.1674 121.754L25.9479 120.843C20.6596 110.507 18.001 98.5827 18.001 85.0439H16.001ZM24.1702 121.76C29.7033 132.413 37.3573 140.653 47.1304 146.451L48.1508 144.731C38.7182 139.135 31.3168 131.181 25.9451 120.838L24.1702 121.76ZM47.1358 146.454C56.9075 152.168 68.0308 155.014 80.4775 155.014V153.014C68.3475 153.014 57.5795 150.244 48.1454 144.728L47.1358 146.454ZM80.4775 155.014C94.1522 155.014 106.261 151.758 116.772 145.219L115.716 143.521C105.556 149.841 93.8211 153.014 80.4775 153.014V155.014ZM116.772 145.219C127.288 138.678 134.522 129.876 138.427 118.824L136.542 118.158C132.797 128.754 125.871 137.204 115.716 143.521L116.772 145.219ZM137.484 119.491H153.964V117.491H137.484V119.491ZM152.996 118.239C150.516 127.761 145.877 136.201 139.069 143.569L140.538 144.927C147.565 137.321 152.367 128.59 154.932 118.743L152.996 118.239ZM139.065 143.574C132.337 150.942 123.918 156.721 113.787 160.902L114.55 162.751C124.927 158.468 133.598 152.528 140.542 144.922L139.065 143.574ZM113.794 160.899C103.669 164.997 92.6488 167.052 80.7217 167.052V169.052C92.8831 169.052 104.161 166.956 114.544 162.753L113.794 160.899ZM178.5 81.626L177.629 81.1342L177.626 81.1403L178.5 81.626ZM199.008 60.752L199.515 61.6137L199.518 61.6122L199.008 60.752ZM258.944 60.752L258.438 61.6143L258.444 61.6177L258.944 60.752ZM279.33 139.731L278.463 139.234L278.461 139.236L279.33 139.731ZM258.7 160.483L259.202 161.349L259.204 161.347L258.7 160.483ZM199.13 160.483L198.626 161.347L198.635 161.353L199.13 160.483ZM178.5 139.731L177.626 140.217L177.631 140.227L178.5 139.731ZM266.635 133.384L265.76 132.899L265.756 132.907L266.635 133.384ZM266.635 87.8516L265.751 88.3195L265.758 88.3319L266.635 87.8516ZM251.254 71.6162L250.739 72.4737L250.744 72.4765L251.254 71.6162ZM172.176 110.801C172.176 100.299 174.579 90.7431 179.374 82.1116L177.626 81.1403C172.656 90.087 170.176 99.9806 170.176 110.801H172.176ZM179.371 82.1178C184.248 73.482 190.959 66.6515 199.515 61.6137L198.5 59.8902C189.641 65.1063 182.68 72.1918 177.629 81.1342L179.371 82.1178ZM199.518 61.6122C208.138 56.5036 217.928 53.9395 228.915 53.9395V51.9395C217.603 51.9395 207.455 54.5836 198.498 59.8917L199.518 61.6122ZM228.915 53.9395C239.902 53.9395 249.734 56.5036 258.438 61.6143L259.451 59.8896C250.414 54.5836 240.227 51.9395 228.915 51.9395V53.9395ZM258.444 61.6177C267.161 66.6559 273.907 73.4839 278.7 82.1116L280.448 81.1403C275.476 72.1899 268.469 65.1019 259.445 59.8862L258.444 61.6177ZM278.7 82.1116C283.495 90.7431 285.898 100.299 285.898 110.801H287.898C287.898 99.9806 285.419 90.087 280.448 81.1403L278.7 82.1116ZM285.898 110.801C285.898 121.131 283.418 130.602 278.463 139.234L280.197 140.229C285.333 131.283 287.898 121.467 287.898 110.801H285.898ZM278.461 139.236C273.586 147.789 266.836 154.58 258.196 159.62L259.204 161.347C268.143 156.133 275.146 149.09 280.199 140.227L278.461 139.236ZM258.199 159.618C249.66 164.566 239.908 167.052 228.915 167.052V169.052C240.221 169.052 250.326 166.492 259.202 161.349L258.199 159.618ZM228.915 167.052C218.088 167.052 208.333 164.568 199.624 159.614L198.635 161.353C207.668 166.49 217.769 169.052 228.915 169.052V167.052ZM199.634 159.62C190.994 154.58 184.244 147.789 179.369 139.236L177.631 140.227C182.684 149.09 189.687 156.133 198.626 161.347L199.634 159.62ZM179.374 139.246C174.578 130.612 172.176 121.137 172.176 110.801H170.176C170.176 121.461 172.657 131.273 177.626 140.217L179.374 139.246ZM184.946 110.801C184.946 119.254 186.813 126.948 190.56 133.86L192.319 132.907C188.742 126.311 186.946 118.949 186.946 110.801H184.946ZM190.56 133.86C194.307 140.77 199.518 146.233 206.184 150.232L207.213 148.518C200.858 144.704 195.896 139.506 192.319 132.907L190.56 133.86ZM206.184 150.232C212.864 154.241 220.45 156.234 228.915 156.234V154.234C220.778 154.234 213.553 152.322 207.213 148.518L206.184 150.232ZM228.915 156.234C237.38 156.234 245.005 154.241 251.764 150.235L250.744 148.515C244.319 152.322 237.052 154.234 228.915 154.234V156.234ZM251.764 150.235C258.511 146.237 263.766 140.773 267.514 133.86L265.756 132.907C262.179 139.503 257.18 144.701 250.744 148.515L251.764 150.235ZM267.509 133.869C271.341 126.955 273.25 119.258 273.25 110.801H271.25C271.25 118.945 269.415 126.304 265.76 132.899L267.509 133.869ZM273.25 110.801C273.25 102.184 271.343 94.3669 267.512 87.3712L265.758 88.3319C269.414 95.0081 271.25 102.49 271.25 110.801H273.25ZM267.519 87.3837C263.772 80.3073 258.517 74.7581 251.764 70.7559L250.744 72.4765C257.174 76.2868 262.173 81.5612 265.751 88.3194L267.519 87.3837ZM251.768 70.7587C245.087 66.7497 237.459 64.7568 228.915 64.7568V66.7568C237.135 66.7568 244.4 68.6702 250.739 72.4737L251.768 70.7587ZM228.915 64.7568C220.45 64.7568 212.864 66.7506 206.184 70.7587L207.213 72.4737C213.553 68.6693 220.778 66.7568 228.915 66.7568V64.7568ZM206.184 70.7587C199.515 74.76 194.303 80.2657 190.558 87.2573L192.321 88.2017C195.9 81.5214 200.861 76.285 207.213 72.4737L206.184 70.7587ZM190.558 87.2573C186.81 94.2528 184.946 102.108 184.946 110.801H186.946C186.946 102.404 188.744 94.878 192.321 88.2017L190.558 87.2573ZM395.785 64.5361L395.063 65.2279L395.067 65.2317L395.785 64.5361ZM406.894 165V166H407.894V165H406.894ZM392.611 165H391.611V166H392.611V165ZM339.511 75.0342L340.208 75.7505L340.213 75.7459L339.511 75.0342ZM330.111 164.756V165.756H331.111V164.756H330.111ZM315.951 164.756H314.951V165.756H315.951V164.756ZM315.951 55.9912V54.9912H314.951V55.9912H315.951ZM327.67 55.9912L328.663 55.8769L328.561 54.9912H327.67V55.9912ZM329.623 72.959L328.63 73.0733L328.986 76.1717L330.498 73.4436L329.623 72.959ZM366.366 53.9395C378.342 53.9395 387.873 57.722 395.063 65.2279L396.507 63.8444C388.886 55.888 378.804 51.9395 366.366 51.9395V53.9395ZM395.067 65.2317C402.235 72.636 405.894 83.4177 405.894 97.7393H407.894C407.894 83.0895 404.147 71.7357 396.504 63.8406L395.067 65.2317ZM405.894 97.7393V165H407.894V97.7393H405.894ZM406.894 164H392.611V166H406.894V164ZM393.611 165V100.791H391.611V165H393.611ZM393.611 100.791C393.611 89.0035 391.223 79.9774 386.277 73.8851C381.299 67.7529 373.865 64.7568 364.169 64.7568V66.7568C373.434 66.7568 380.222 69.5997 384.724 75.1457C389.259 80.7315 391.611 89.2224 391.611 100.791H393.611ZM364.169 64.7568C353.778 64.7568 345.291 67.924 338.808 74.3225L340.213 75.7459C346.263 69.7746 354.215 66.7568 364.169 66.7568V64.7568ZM338.813 74.3178C332.335 80.6272 329.111 88.7068 329.111 98.4717H331.111C331.111 89.1936 334.154 81.6481 340.208 75.7505L338.813 74.3178ZM329.111 98.4717V164.756H331.111V98.4717H329.111ZM330.111 163.756H315.951V165.756H330.111V163.756ZM316.951 164.756V55.9912H314.951V164.756H316.951ZM315.951 56.9912H327.67V54.9912H315.951V56.9912ZM326.676 56.1056L328.63 73.0733L330.616 72.8446L328.663 55.8769L326.676 56.1056ZM330.498 73.4436C333.731 67.6071 338.629 62.8939 345.236 59.3117L344.283 57.5535C337.381 61.2956 332.188 66.2666 328.748 72.4743L330.498 73.4436ZM345.236 59.3117C351.845 55.7286 358.884 53.9395 366.366 53.9395V51.9395C358.549 51.9395 351.183 53.8124 344.283 57.5535L345.236 59.3117ZM489.779 67.71V68.71H490.779V67.71H489.779ZM467.807 67.71V66.71H466.807V67.71H467.807ZM467.807 165V166H468.807V165H467.807ZM453.646 165H452.646V166H453.646V165ZM453.646 67.71H454.646V66.71H453.646V67.71ZM431.796 67.71H430.796V68.71H431.796V67.71ZM431.796 55.9912V54.9912H430.796V55.9912H431.796ZM453.646 55.9912V56.9912H454.646V55.9912H453.646ZM453.646 26.6943V25.6943H452.646V26.6943H453.646ZM467.807 26.6943H468.807V25.6943H467.807V26.6943ZM467.807 55.9912H466.807V56.9912H467.807V55.9912ZM489.779 55.9912H490.779V54.9912H489.779V55.9912ZM489.779 66.71H467.807V68.71H489.779V66.71ZM466.807 67.71V165H468.807V67.71H466.807ZM467.807 164H453.646V166H467.807V164ZM454.646 165V67.71H452.646V165H454.646ZM453.646 66.71H431.796V68.71H453.646V66.71ZM432.796 67.71V55.9912H430.796V67.71H432.796ZM431.796 56.9912H453.646V54.9912H431.796V56.9912ZM454.646 55.9912V26.6943H452.646V55.9912H454.646ZM453.646 27.6943H467.807V25.6943H453.646V27.6943ZM466.807 26.6943V55.9912H468.807V26.6943H466.807ZM467.807 56.9912H489.779V54.9912H467.807V56.9912ZM488.779 55.9912V67.71H490.779V55.9912H488.779ZM614.657 55.9912H615.657V54.9912H614.657V55.9912ZM614.657 165V166H615.657V165H614.657ZM601.474 165H600.474V166H601.474V165ZM601.474 142.051H602.474L600.564 141.635L601.474 142.051ZM584.384 160.85L584.907 161.702L584.91 161.7L584.384 160.85ZM530.429 160.972L529.905 161.824L529.912 161.828L530.429 160.972ZM511.996 140.708L511.102 141.155L511.107 141.165L511.996 140.708ZM512.118 80.4053L511.23 79.9449L511.227 79.9515L512.118 80.4053ZM530.795 60.1416L531.308 60.9999L531.315 60.996L530.795 60.1416ZM584.872 59.7754L584.368 60.6392L584.379 60.6453L584.872 59.7754ZM601.718 77.9639L600.801 78.3637L602.716 78.0193L601.718 77.9639ZM602.938 55.9912V54.9912H601.992L601.94 55.9357L602.938 55.9912ZM588.656 142.905L589.403 143.571L589.406 143.567L588.656 142.905ZM530.917 78.208L531.664 78.8733L531.667 78.8696L530.917 78.208ZM613.657 55.9912V165H615.657V55.9912H613.657ZM614.657 164H601.474V166H614.657V164ZM602.474 165V142.051H600.474V165H602.474ZM600.564 141.635C597.155 149.087 591.602 155.209 583.858 159.999L584.91 161.7C592.953 156.725 598.793 150.314 602.383 142.467L600.564 141.635ZM583.86 159.998C576.225 164.69 567.337 167.052 557.162 167.052V169.052C567.658 169.052 576.918 166.612 584.907 161.702L583.86 159.998ZM557.162 167.052C547.316 167.052 538.587 164.733 530.946 160.116L529.912 161.828C537.895 166.651 546.988 169.052 557.162 169.052V167.052ZM530.952 160.12C523.306 155.421 517.284 148.807 512.885 140.251L511.107 141.165C515.66 150.024 521.926 156.92 529.905 161.824L530.952 160.12ZM512.891 140.261C508.575 131.63 506.404 121.737 506.404 110.557H504.404C504.404 122 506.628 132.208 511.102 141.155L512.891 140.261ZM506.404 110.557C506.404 99.3793 508.615 89.4882 513.009 80.8591L511.227 79.9515C506.67 88.9005 504.404 99.1103 504.404 110.557H506.404ZM513.006 80.8656C517.484 72.2283 523.586 65.6173 531.308 60.9999L530.282 59.2833C522.216 64.106 515.866 71.0041 511.23 79.945L513.006 80.8656ZM531.315 60.996C539.036 56.2993 547.886 53.9395 557.895 53.9395V51.9395C547.558 51.9395 538.341 54.3811 530.275 59.2872L531.315 60.996ZM557.895 53.9395C567.913 53.9395 576.727 56.1818 584.368 60.6392L585.376 58.9116C577.392 54.2544 568.222 51.9395 557.895 51.9395V53.9395ZM584.379 60.6453C592.102 65.0243 597.559 70.9299 600.801 78.3637L602.634 77.5641C599.204 69.6983 593.43 63.4783 585.365 58.9055L584.379 60.6453ZM602.716 78.0193L603.937 56.0467L601.94 55.9357L600.719 77.9084L602.716 78.0193ZM602.938 56.9912H614.657V54.9912H602.938V56.9912ZM559.726 156.234C571.946 156.234 581.871 152.023 589.403 143.571L587.91 142.24C580.793 150.227 571.431 154.234 559.726 154.234V156.234ZM589.406 143.567C596.929 135.041 600.643 123.717 600.643 109.702H598.643C598.643 123.356 595.032 134.168 587.906 142.244L589.406 143.567ZM600.643 109.702C600.643 96.0135 597.01 85.0489 589.641 76.9258L588.16 78.2696C595.113 85.9342 598.643 96.3726 598.643 109.702H600.643ZM589.641 76.9258C582.266 68.7961 572.421 64.7568 560.214 64.7568V66.7568C571.933 66.7568 581.212 70.6114 588.16 78.2696L589.641 76.9258ZM560.214 64.7568C547.753 64.7568 537.702 69.0069 530.167 77.5464L531.667 78.8696C538.78 70.8076 548.261 66.7568 560.214 66.7568V64.7568ZM530.17 77.5427C522.65 85.9823 518.931 97.0196 518.931 110.557H520.931C520.931 97.401 524.536 86.8725 531.664 78.8733L530.17 77.5427ZM518.931 110.557C518.931 124.252 522.648 135.334 530.174 143.696L531.66 142.358C524.538 134.444 520.931 123.879 520.931 110.557H518.931ZM530.174 143.696C537.705 152.064 547.588 156.234 559.726 156.234V154.234C548.1 154.234 538.777 150.266 531.66 142.358L530.174 143.696ZM650.79 80.4053L649.909 79.9321L649.907 79.9351L650.79 80.4053ZM670.321 60.1416L670.816 61.0109L670.818 61.0093L670.321 60.1416ZM732.577 62.7051L731.996 63.5188L731.999 63.5212L732.577 62.7051ZM749.789 89.8047V90.8047H751.005L750.77 89.6112L749.789 89.8047ZM735.385 89.8047L734.42 90.0669L734.62 90.8047H735.385V89.8047ZM722.567 72.1045L722.008 72.9334L722.015 72.9381L722.567 72.1045ZM722.689 148.887L722.135 148.055L722.13 148.058L722.689 148.887ZM735.385 131.309V130.309H734.608L734.416 131.061L735.385 131.309ZM749.789 131.309L750.77 131.502L751.005 130.309H749.789V131.309ZM732.455 158.042L731.875 157.228L731.871 157.23L732.455 158.042ZM670.199 160.972L669.702 161.839L669.712 161.845L670.199 160.972ZM650.668 140.708L649.78 141.168L649.785 141.178L650.668 140.708ZM644.832 110.557C644.832 99.3018 647.122 89.4174 651.673 80.8754L649.907 79.9351C645.181 88.8085 642.832 99.025 642.832 110.557H644.832ZM651.671 80.8784C656.306 72.2474 662.686 65.6336 670.816 61.0109L669.827 59.2723C661.355 64.0897 654.714 70.9851 649.909 79.9321L651.671 80.8784ZM670.818 61.0093C679.034 56.3033 688.381 53.9395 698.886 53.9395V51.9395C688.069 51.9395 678.373 54.377 669.824 59.2739L670.818 61.0093ZM698.886 53.9395C712.065 53.9395 723.081 57.1513 731.996 63.5188L733.158 61.8913C723.844 55.238 712.4 51.9395 698.886 51.9395V53.9395ZM731.999 63.5212C740.976 69.8762 746.576 78.6811 748.808 89.9981L750.77 89.6112C748.444 77.8163 742.57 68.5548 733.155 61.8889L731.999 63.5212ZM749.789 88.8047H735.385V90.8047H749.789V88.8047ZM736.35 89.5425C734.251 81.8195 729.831 75.7171 723.12 71.2708L722.015 72.9381C728.325 77.1182 732.449 82.8159 734.42 90.0669L736.35 89.5425ZM723.127 71.2757C716.423 66.7506 708.326 64.5127 698.886 64.5127V66.5127C708.001 66.5127 715.691 68.6693 722.008 72.9333L723.127 71.2757ZM698.886 64.5127C686.283 64.5127 676.077 68.5443 668.375 76.6654L669.826 78.0417C677.098 70.375 686.749 66.5127 698.886 66.5127V64.5127ZM668.375 76.6654C660.663 84.7968 656.87 96.1407 656.87 110.557H658.87C658.87 96.4895 662.565 85.698 669.826 78.0417L668.375 76.6654ZM656.87 110.557C656.87 124.409 660.543 135.572 667.987 143.936L669.481 142.607C662.44 134.695 658.87 124.048 658.87 110.557H656.87ZM667.987 143.936C675.452 152.323 685.713 156.479 698.642 156.479V154.479C686.18 154.479 676.502 150.496 669.481 142.607L667.987 143.936ZM698.642 156.479C708.32 156.479 716.541 154.243 723.249 149.716L722.13 148.058C715.817 152.319 708.007 154.479 698.642 154.479V156.479ZM723.244 149.719C730.031 145.194 734.418 139.132 736.354 131.556L734.416 131.061C732.608 138.134 728.532 143.79 722.135 148.055L723.244 149.719ZM735.385 132.309H749.789V130.309H735.385V132.309ZM748.808 131.115C746.661 142.011 741.028 150.701 731.875 157.228L733.036 158.856C742.6 152.037 748.523 142.905 750.77 131.502L748.808 131.115ZM731.871 157.23C722.784 163.767 711.967 167.052 699.374 167.052V169.052C712.334 169.052 723.572 165.664 733.039 158.854L731.871 157.23ZM699.374 167.052C688.535 167.052 678.982 164.725 670.686 160.098L669.712 161.845C678.344 166.659 688.24 169.052 699.374 169.052V167.052ZM670.696 160.104C662.481 155.398 656.103 148.783 651.551 140.238L649.785 141.178C654.511 150.048 661.153 156.942 669.702 161.839L670.696 160.104ZM651.556 140.248C647.082 131.62 644.832 121.731 644.832 110.557H642.832C642.832 122.006 645.139 132.218 649.78 141.168L651.556 140.248ZM825.717 67.71V68.71H826.717V67.71H825.717ZM803.744 67.71V66.71H802.744V67.71H803.744ZM803.744 165V166H804.744V165H803.744ZM789.584 165H788.584V166H789.584V165ZM789.584 67.71H790.584V66.71H789.584V67.71ZM767.733 67.71H766.733V68.71H767.733V67.71ZM767.733 55.9912V54.9912H766.733V55.9912H767.733ZM789.584 55.9912V56.9912H790.584V55.9912H789.584ZM789.584 26.6943V25.6943H788.584V26.6943H789.584ZM803.744 26.6943H804.744V25.6943H803.744V26.6943ZM803.744 55.9912H802.744V56.9912H803.744V55.9912ZM825.717 55.9912H826.717V54.9912H825.717V55.9912ZM825.717 66.71H803.744V68.71H825.717V66.71ZM802.744 67.71V165H804.744V67.71H802.744ZM803.744 164H789.584V166H803.744V164ZM790.584 165V67.71H788.584V165H790.584ZM789.584 66.71H767.733V68.71H789.584V66.71ZM768.733 67.71V55.9912H766.733V67.71H768.733ZM767.733 56.9912H789.584V54.9912H767.733V56.9912ZM790.584 55.9912V26.6943H788.584V55.9912H790.584ZM789.584 27.6943H803.744V25.6943H789.584V27.6943ZM802.744 26.6943V55.9912H804.744V26.6943H802.744ZM803.744 56.9912H825.717V54.9912H803.744V56.9912ZM824.717 55.9912V67.71H826.717V55.9912H824.717ZM910.067 4.72168V3.72168H909.067V4.72168H910.067ZM925.326 4.72168H926.326V3.72168H925.326V4.72168ZM925.326 110.557H924.326L924.326 110.567L925.326 110.557ZM938.632 144.004L938.028 144.801L938.037 144.807L938.632 144.004ZM1002.6 143.149L1001.97 142.374L1001.96 142.376L1002.6 143.149ZM1015.66 4.72168V3.72168H1014.66V4.72168H1015.66ZM1030.67 4.72168H1031.67V3.72168H1030.67V4.72168ZM1022.37 142.905L1023.21 143.449L1022.37 142.905ZM1000.4 161.948L1000.81 162.86L1000.81 162.858L1000.4 161.948ZM941.073 162.314L940.679 163.234L940.689 163.238L941.073 162.314ZM918.734 143.76L917.906 144.32L917.909 144.324L918.734 143.76ZM910.067 5.72168H925.326V3.72168H910.067V5.72168ZM924.326 4.72168V110.557H926.326V4.72168H924.326ZM924.326 110.567C924.491 126.441 928.979 137.951 938.028 144.801L939.235 143.207C930.869 136.873 926.487 126.085 926.326 110.546L924.326 110.567ZM938.037 144.807C947.022 151.464 957.9 154.77 970.614 154.77V152.77C958.263 152.77 947.819 149.565 939.227 143.2L938.037 144.807ZM970.614 154.77C983.507 154.77 994.402 151.169 1003.23 143.922L1001.96 142.376C993.539 149.29 983.112 152.77 970.614 152.77V154.77ZM1003.23 143.925C1012.24 136.601 1016.66 125.407 1016.66 110.557H1014.66C1014.66 125.003 1010.37 135.538 1001.97 142.374L1003.23 143.925ZM1016.66 110.557V4.72168H1014.66V110.557H1016.66ZM1015.66 5.72168H1030.67V3.72168H1015.66V5.72168ZM1029.67 4.72168V111.045H1031.67V4.72168H1029.67ZM1029.67 111.045C1029.67 123.595 1026.94 134.014 1021.53 142.362L1023.21 143.449C1028.87 134.706 1031.67 123.885 1031.67 111.045H1029.67ZM1021.53 142.362C1016.1 150.749 1008.92 156.968 999.985 161.038L1000.81 162.858C1010.11 158.627 1017.58 152.151 1023.21 143.449L1021.53 142.362ZM999.989 161.036C991.096 165.042 981.309 167.052 970.614 167.052V169.052C981.566 169.052 991.636 166.992 1000.81 162.86L999.989 161.036ZM970.614 167.052C960.241 167.052 950.525 165.163 941.457 161.391L940.689 163.238C950.013 167.116 959.992 169.052 970.614 169.052V167.052ZM941.467 161.395C932.534 157.567 925.235 151.508 919.56 143.196L917.909 144.324C923.79 152.939 931.384 159.25 940.679 163.234L941.467 161.395ZM919.563 143.2C913.925 134.862 911.067 124.167 911.067 111.045H909.067C909.067 124.453 911.988 135.568 917.906 144.32L919.563 143.2ZM911.067 111.045V4.72168H909.067V111.045H911.067ZM1071.69 159.141L1071.08 159.934L1071.08 159.937L1071.69 159.141ZM1059.36 135.703V134.703H1058.31L1058.36 135.753L1059.36 135.703ZM1073.15 135.703L1074.15 135.628L1074.08 134.703H1073.15V135.703ZM1081.58 150.962L1080.99 151.776L1081 151.78L1081.58 150.962ZM1109.16 117.515L1108.95 118.491L1108.96 118.494L1108.98 118.497L1109.16 117.515ZM1088.9 112.998L1089.12 112.022L1089.12 112.022L1088.9 112.998ZM1068.76 102.5L1069.52 101.851L1068.76 102.5ZM1073.15 61.6064L1073.78 62.3891L1073.78 62.3847L1073.15 61.6064ZM1130.04 61.9727L1129.4 62.7451L1129.41 62.7485L1130.04 61.9727ZM1141.63 85.7764V86.7764H1142.67L1142.63 85.7433L1141.63 85.7764ZM1127.84 85.7764L1126.84 85.8008L1126.86 86.7764H1127.84V85.7764ZM1120.27 70.1514L1119.66 70.94L1119.66 70.945L1120.27 70.1514ZM1083.29 69.4189L1082.69 68.6154L1082.68 68.6208L1083.29 69.4189ZM1082.06 95.4199L1081.49 96.2401L1081.5 96.2446L1081.51 96.249L1082.06 95.4199ZM1095.13 100.791L1094.9 101.765L1094.91 101.767L1095.13 100.791ZM1117.59 105.796L1117.81 104.821L1117.8 104.82L1117.59 105.796ZM1101.84 167.052C1089.71 167.052 1079.89 164.123 1072.29 158.345L1071.08 159.937C1079.11 166.04 1089.39 169.052 1101.84 169.052V167.052ZM1072.3 158.348C1064.8 152.584 1060.83 145.043 1060.36 135.653L1058.36 135.753C1058.86 145.732 1063.12 153.815 1071.08 159.934L1072.3 158.348ZM1059.36 136.703H1073.15V134.703H1059.36V136.703ZM1072.16 135.778C1072.67 142.572 1075.62 147.934 1080.99 151.776L1082.16 150.148C1077.28 146.666 1074.62 141.855 1074.15 135.628L1072.16 135.778ZM1081 151.78C1086.42 155.592 1093.4 157.455 1101.84 157.455V155.455C1093.68 155.455 1087.15 153.656 1082.15 150.144L1081 151.78ZM1101.84 157.455C1110.43 157.455 1117.33 155.681 1122.44 152.019L1121.28 150.393C1116.62 153.73 1110.18 155.455 1101.84 155.455V157.455ZM1122.44 152.019C1127.6 148.322 1130.18 143.13 1130.18 136.558H1128.18C1128.18 142.518 1125.88 147.091 1121.28 150.393L1122.44 152.019ZM1130.18 136.558C1130.18 131.229 1128.42 126.826 1124.87 123.443C1121.34 120.087 1116.13 117.813 1109.35 116.532L1108.98 118.497C1115.55 119.739 1120.34 121.9 1123.49 124.892C1126.61 127.856 1128.18 131.714 1128.18 136.558H1130.18ZM1109.38 116.539L1089.12 112.022L1088.68 113.974L1108.95 118.491L1109.38 116.539ZM1089.12 112.022C1080.04 110.014 1073.56 106.591 1069.52 101.851L1068 103.149C1072.42 108.338 1079.37 111.913 1088.68 113.974L1089.12 112.022ZM1069.52 101.851C1065.46 97.0883 1063.41 91.2226 1063.41 84.1895H1061.41C1061.41 91.642 1063.59 97.9833 1068 103.149L1069.52 101.851ZM1063.41 84.1895C1063.41 75.1274 1066.86 67.891 1073.78 62.3891L1072.53 60.8238C1065.12 66.7151 1061.41 74.534 1061.41 84.1895H1063.41ZM1073.78 62.3847C1080.72 56.7847 1089.88 53.9395 1101.35 53.9395V51.9395C1089.55 51.9395 1079.91 54.8722 1072.53 60.8282L1073.78 62.3847ZM1101.35 53.9395C1112.98 53.9395 1122.3 56.9033 1129.4 62.7451L1130.67 61.2002C1123.13 54.9978 1113.33 51.9395 1101.35 51.9395V53.9395ZM1129.41 62.7485C1136.58 68.5814 1140.32 76.241 1140.64 85.8094L1142.63 85.7433C1142.3 75.6177 1138.31 67.4082 1130.67 61.1968L1129.41 62.7485ZM1141.63 84.7764H1127.84V86.7764H1141.63V84.7764ZM1128.84 85.752C1128.67 78.8058 1126.03 73.3024 1120.88 69.3578L1119.66 70.945C1124.28 74.4873 1126.69 79.4006 1126.84 85.8008L1128.84 85.752ZM1120.89 69.3627C1115.87 65.4476 1109.32 63.5361 1101.35 63.5361V65.5361C1109.01 65.5361 1115.08 67.3681 1119.66 70.94L1120.89 69.3627ZM1101.35 63.5361C1093.57 63.5361 1087.31 65.1906 1082.69 68.6154L1083.88 70.2225C1088.05 67.1369 1093.83 65.5361 1101.35 65.5361V63.5361ZM1082.68 68.6208C1078.09 72.0856 1075.82 76.9944 1075.82 83.2129H1077.82C1077.82 77.5499 1079.85 73.2627 1083.89 70.2171L1082.68 68.6208ZM1075.82 83.2129C1075.82 89.1161 1077.64 93.552 1081.49 96.2401L1082.64 94.5998C1079.49 92.405 1077.82 88.7029 1077.82 83.2129H1075.82ZM1081.51 96.249C1085.13 98.6923 1089.6 100.523 1094.9 101.765L1095.35 99.8174C1090.23 98.6173 1086 96.8676 1082.62 94.5909L1081.51 96.249ZM1094.91 101.767L1117.37 106.772L1117.8 104.82L1095.34 99.815L1094.91 101.767ZM1117.36 106.771C1126.09 108.773 1132.46 112.309 1136.59 117.298L1138.13 116.022C1133.64 110.595 1126.82 106.888 1117.81 104.821L1117.36 106.771ZM1136.59 117.298C1140.74 122.312 1142.83 128.347 1142.83 135.459H1144.83C1144.83 127.923 1142.61 121.425 1138.13 116.022L1136.59 117.298ZM1142.83 135.459C1142.83 145.176 1139.18 152.812 1131.87 158.472L1133.09 160.053C1140.92 153.995 1144.83 145.762 1144.83 135.459H1142.83ZM1131.87 158.472C1124.53 164.156 1114.55 167.052 1101.84 167.052V169.052C1114.84 169.052 1125.3 166.088 1133.09 160.053L1131.87 158.472Z" fill="#807784" fill-opacity="0.11"/>
</svg>
