<svg width="412" height="216" viewBox="0 0 412 216" fill="none" xmlns="http://www.w3.org/2000/svg">
<path d="M16.79 19.0039V18.0039H15.79V19.0039H16.79ZM16.79 80.7715H15.79V81.7715H16.79V80.7715ZM83.1963 80.7715H84.1963V79.7715H83.1963V80.7715ZM83.1963 93.7109V94.7109H84.1963V93.7109H83.1963ZM16.79 93.7109V92.7109H15.79V93.7109H16.79ZM16.79 165V166H17.79V165H16.79ZM1.77539 165H0.775391V166H1.77539V165ZM1.77539 4.72168V3.72168H0.775391V4.72168H1.77539ZM96.0137 4.72168H97.0137V3.72168H96.0137V4.72168ZM96.0137 19.0039V20.0039H97.0137V19.0039H96.0137ZM15.79 19.0039V80.7715H17.79V19.0039H15.79ZM16.79 81.7715H83.1963V79.7715H16.79V81.7715ZM82.1963 80.7715V93.7109H84.1963V80.7715H82.1963ZM83.1963 92.7109H16.79V94.7109H83.1963V92.7109ZM15.79 93.7109V165H17.79V93.7109H15.79ZM16.79 164H1.77539V166H16.79V164ZM2.77539 165V4.72168H0.775391V165H2.77539ZM1.77539 5.72168H96.0137V3.72168H1.77539V5.72168ZM95.0137 4.72168V19.0039H97.0137V4.72168H95.0137ZM96.0137 18.0039H16.79V20.0039H96.0137V18.0039ZM156.072 4.72168V3.72168H155.378L155.135 4.37267L156.072 4.72168ZM174.627 4.72168L175.564 4.37141L175.321 3.72168H174.627V4.72168ZM234.563 165V166H236.005L235.5 164.65L234.563 165ZM218.816 165L217.877 165.344L218.118 166H218.816V165ZM203.069 122.031L204.008 121.687L203.768 121.031H203.069V122.031ZM127.386 122.031V121.031H126.696L126.451 121.675L127.386 122.031ZM111.028 165V166H111.718L111.963 165.356L111.028 165ZM96.3799 165L95.4428 164.651L94.9404 166H96.3799V165ZM198.553 109.458V110.458H199.984L199.492 109.114L198.553 109.458ZM180.364 59.7754L179.422 60.111L179.425 60.1192L180.364 59.7754ZM165.838 19.0039L166.78 18.6683L165.858 16.0813L164.901 18.6552L165.838 19.0039ZM150.579 60.0195L151.514 60.375L151.516 60.3682L150.579 60.0195ZM131.78 109.458L130.846 109.103L130.33 110.458H131.78V109.458ZM156.072 5.72168H174.627V3.72168H156.072V5.72168ZM173.69 5.07195L233.627 165.35L235.5 164.65L175.564 4.37141L173.69 5.07195ZM234.563 164H218.816V166H234.563V164ZM219.755 164.656L204.008 121.687L202.13 122.375L217.877 165.344L219.755 164.656ZM203.069 121.031H127.386V123.031H203.069V121.031ZM126.451 121.675L110.094 164.644L111.963 165.356L128.32 122.387L126.451 121.675ZM111.028 164H96.3799V166H111.028V164ZM97.317 165.349L157.009 5.07069L155.135 4.37267L95.4428 164.651L97.317 165.349ZM199.492 109.114L181.303 59.4316L179.425 60.1192L197.614 109.802L199.492 109.114ZM181.306 59.4398L166.78 18.6683L164.896 19.3395L179.422 60.111L181.306 59.4398ZM164.901 18.6552L149.642 59.6709L151.516 60.3682L166.775 19.3526L164.901 18.6552ZM149.644 59.6641L130.846 109.103L132.715 109.813L151.514 60.375L149.644 59.6641ZM131.78 110.458H198.553V108.458H131.78V110.458ZM400.823 126.06L401.704 126.533L401.706 126.53L400.823 126.06ZM336.126 167.808L336.051 166.81L335.126 166.88V167.808H336.126ZM363.104 201.499H364.104V200.366L362.979 200.507L363.104 201.499ZM363.104 213.462L363.248 214.451L364.104 214.326V213.462H363.104ZM328.924 206.26L328.183 206.931L328.183 206.932L328.924 206.26ZM321.844 167.808H322.844V166.887L321.926 166.811L321.844 167.808ZM284.368 155.112L283.815 155.945L283.819 155.948L284.368 155.112ZM258.001 125.815L257.116 126.281L257.117 126.284L258.001 125.815ZM259.1 42.3193L259.969 42.8131L259.971 42.8107L259.1 42.3193ZM288.274 12.5342L287.773 11.6687L287.771 11.6702L288.274 12.5342ZM370.428 12.4121L369.931 13.28L369.933 13.2814L370.428 12.4121ZM399.847 42.0752L398.976 42.5665L398.977 42.5689L399.847 42.0752ZM272.283 120.566L271.409 121.051L271.412 121.057L272.283 120.566ZM386.053 120.566L385.181 120.076L385.178 120.081L386.053 120.566ZM386.053 49.3994L385.178 49.8845L385.181 49.8897L386.053 49.3994ZM296.209 24.9854L295.71 24.1188L295.707 24.1206L296.209 24.9854ZM272.283 49.3994L271.412 48.9091L271.409 48.9144L272.283 49.3994ZM409.589 85.0439C409.589 100.032 406.367 113.54 399.941 125.589L401.706 126.53C408.3 114.165 411.589 100.329 411.589 85.0439H409.589ZM399.942 125.587C393.51 137.567 384.713 147.164 373.546 154.395L374.633 156.074C386.09 148.656 395.116 138.804 401.704 126.533L399.942 125.587ZM373.546 154.395C362.381 161.624 349.888 165.765 336.051 166.81L336.201 168.805C350.358 167.735 363.175 163.493 374.633 156.074L373.546 154.395ZM335.126 167.808V182.7H337.126V167.808H335.126ZM335.126 182.7C335.126 189.81 336.732 195.119 340.208 198.328L341.565 196.858C338.694 194.207 337.126 189.588 337.126 182.7H335.126ZM340.208 198.328C343.638 201.493 348.686 202.987 355.169 202.987V200.987C348.956 200.987 344.484 199.552 341.565 196.858L340.208 198.328ZM355.169 202.987C357.895 202.987 360.581 202.822 363.228 202.491L362.979 200.507C360.417 200.827 357.814 200.987 355.169 200.987V202.987ZM362.104 201.499V213.462H364.104V201.499H362.104ZM362.959 212.472C359.674 212.953 356.223 213.194 352.605 213.194V215.194C356.312 215.194 359.86 214.947 363.248 214.451L362.959 212.472ZM352.605 213.194C341.75 213.194 334.194 210.578 329.664 205.588L328.183 206.932C333.256 212.521 341.488 215.194 352.605 215.194V213.194ZM329.665 205.588C325.167 200.625 322.844 193.413 322.844 183.799H320.844C320.844 193.716 323.241 201.478 328.183 206.931L329.665 205.588ZM322.844 183.799V167.808H320.844V183.799H322.844ZM321.926 166.811C308.251 165.685 295.921 161.505 284.917 154.277L283.819 155.948C295.114 163.368 307.767 167.652 321.762 168.804L321.926 166.811ZM284.921 154.279C273.915 146.968 265.238 137.329 258.884 125.347L257.117 126.284C263.622 138.553 272.523 148.445 283.815 155.945L284.921 154.279ZM258.886 125.349C252.539 113.298 249.357 99.8697 249.357 85.0439H247.357C247.357 100.166 250.605 113.919 257.116 126.281L258.886 125.349ZM249.357 85.0439C249.357 69.3312 252.901 55.2626 259.969 42.813L258.23 41.8256C250.975 54.604 247.357 69.0184 247.357 85.0439H249.357ZM259.971 42.8107C267.047 30.266 276.647 20.4679 288.778 13.3982L287.771 11.6702C275.325 18.9233 265.475 28.9821 258.229 41.828L259.971 42.8107ZM288.775 13.3996C300.985 6.33106 314.523 2.79199 329.412 2.79199V0.791992C314.191 0.791992 300.304 4.41438 287.773 11.6687L288.775 13.3996ZM329.412 2.79199C344.221 2.79199 357.72 6.29093 369.931 13.28L370.924 11.5442C358.396 4.37313 344.551 0.791992 329.412 0.791992V2.79199ZM369.933 13.2814C382.224 20.2703 391.902 30.0261 398.976 42.5665L400.718 41.5839C393.469 28.7337 383.534 18.7141 370.922 11.5428L369.933 13.2814ZM398.977 42.5689C406.044 55.0169 409.589 69.1665 409.589 85.0439H411.589C411.589 68.8576 407.972 54.3614 400.716 41.5815L398.977 42.5689ZM262.616 85.0439C262.616 98.459 265.539 110.47 271.409 121.051L273.158 120.081C267.471 109.829 264.616 98.1589 264.616 85.0439H262.616ZM271.412 121.057C277.355 131.623 285.414 139.892 295.582 145.843L296.592 144.117C286.74 138.35 278.93 130.343 273.155 120.076L271.412 121.057ZM295.582 145.843C305.753 151.797 317.037 154.77 329.412 154.77V152.77C317.373 152.77 306.44 149.882 296.592 144.117L295.582 145.843ZM329.412 154.77C341.547 154.77 352.708 151.795 362.876 145.843L361.866 144.117C352.014 149.884 341.203 152.77 329.412 152.77V154.77ZM362.876 145.843C373.045 139.891 381.065 131.621 386.927 121.051L385.178 120.081C379.485 130.346 371.717 138.351 361.866 144.117L362.876 145.843ZM386.924 121.057C392.877 110.474 395.842 98.4614 395.842 85.0439H393.842C393.842 98.1565 390.947 109.825 385.181 120.076L386.924 121.057ZM395.842 85.0439C395.842 71.5463 392.877 59.4924 386.924 48.9091L385.181 49.8897C390.947 60.1398 393.842 71.8489 393.842 85.0439H395.842ZM386.927 48.9144C381.065 38.3453 373.045 30.0748 362.876 24.1223L361.866 25.8484C371.717 31.6146 379.485 39.6202 385.178 49.8845L386.927 48.9144ZM362.876 24.1223C352.708 18.1703 341.547 15.1963 329.412 15.1963V17.1963C341.203 17.1963 352.014 20.0816 361.866 25.8484L362.876 24.1223ZM329.412 15.1963C317.278 15.1963 306.037 18.1703 295.71 24.1188L296.708 25.8519C306.726 20.0817 317.621 17.1963 329.412 17.1963V15.1963ZM295.707 24.1206C285.457 30.0718 277.356 38.3409 271.412 48.9091L273.155 49.8897C278.929 39.6246 286.778 31.6176 296.711 25.8501L295.707 24.1206ZM271.409 48.9144C265.539 59.4966 262.616 71.5487 262.616 85.0439H264.616C264.616 71.8465 267.472 60.1355 273.158 49.8845L271.409 48.9144Z" fill="#807784" fill-opacity="0.11"/>
</svg>
