<svg width="10" height="10" viewBox="0 0 10 10" fill="none" xmlns="http://www.w3.org/2000/svg">
<path d="M9.10674 5.89326H6.06978C6.02296 5.89326 5.97808 5.91187 5.94498 5.94498C5.91187 5.97808 5.89326 6.02296 5.89326 6.06978V9.10674C5.89326 9.34365 5.79917 9.57084 5.63165 9.73835C5.46413 9.90587 5.23691 10 5 10C4.76309 10 4.5359 9.90587 4.36839 9.73835C4.20087 9.57084 4.10674 9.34365 4.10674 9.10674V6.06978C4.10674 6.02296 4.08816 5.97808 4.05506 5.94498C4.02195 5.91187 3.97704 5.89326 3.93022 5.89326H0.893259C0.656353 5.89326 0.429164 5.79913 0.261646 5.63161C0.0941278 5.46409 0 5.23691 0 5C0 4.76309 0.0941278 4.5359 0.261646 4.36839C0.429164 4.20087 0.656353 4.10674 0.893259 4.10674H3.93022C3.97704 4.10674 4.02195 4.08813 4.05506 4.05502C4.08816 4.02192 4.10674 3.97704 4.10674 3.93022V0.893259C4.10674 0.656353 4.20087 0.429164 4.36839 0.261646C4.5359 0.0941278 4.76309 0 5 0C5.23691 0 5.46413 0.0941278 5.63165 0.261646C5.79917 0.429164 5.89326 0.656353 5.89326 0.893259V3.93022C5.89326 3.97704 5.91187 4.02192 5.94498 4.05502C5.97808 4.08813 6.02296 4.10674 6.06978 4.10674H9.10674C9.34365 4.10674 9.57084 4.20087 9.73835 4.36839C9.90587 4.5359 10 4.76309 10 5C10 5.23691 9.90587 5.46409 9.73835 5.63161C9.57084 5.79913 9.34365 5.89326 9.10674 5.89326Z" fill="#807784"/>
</svg>
